<svg width="250.000488" height="258.642334" viewBox="0 0 250 258.642" fill="none" xmlns="http://www.w3.org/2000/svg" xmlns:xlink="http://www.w3.org/1999/xlink">
	<desc>
			Created with Pixso.
	</desc>
	<defs/>
	<path id="path" d="M125.27 258.64C121.46 258.64 117.64 257.64 114.37 256.13L80.06 237.6C75.16 235.09 77.34 234.09 78.97 233.59C86.05 231.58 87.14 231.08 94.77 227.07C95.31 226.57 96.4 227.07 97.49 227.07L124.18 241.6C125.27 242.1 126.36 242.1 127.45 241.6L230.39 186.99C231.48 186.49 232.02 185.49 232.02 184.49L232.02 74.77C232.02 73.77 231.48 72.77 230.39 72.26L127.45 17.66C126.36 17.15 125.27 17.15 124.18 17.66L20.69 71.76C19.6 72.26 19.06 73.27 19.06 74.27L19.06 183.49C19.06 184.49 19.6 185.49 20.69 185.99L49.01 201.02C64.27 208.04 73.52 200.02 73.52 191.5L73.52 83.79C73.52 82.28 74.61 81.28 76.79 81.28L89.86 81.28C91.5 81.28 92.59 82.28 92.59 83.79L92.59 192C92.59 211.04 81.69 221.56 62.09 221.56C56.1 221.56 51.19 221.56 38.12 215.55L10.89 201.02C4.35 197.52 0 191 0 183.49L0 74.77C0 67.76 4.35 61.24 10.89 57.23L114.37 2.63C120.91 -0.88 129.63 -0.88 136.16 2.63L239.1 57.23C245.64 60.74 250 67.25 250 74.77L250 183.99C250 191 245.64 197.52 239.1 201.52L136.16 256.13C132.35 257.64 129.08 258.64 125.27 258.64Z" fill="#80BD01" fill-opacity="1.000000" fill-rule="nonzero"/>
	<path id="path" d="M156.86 183.49C111.65 183.49 102.39 164.45 102.39 148.42C102.39 146.91 103.48 145.91 105.12 145.91L118.19 145.91C119.82 145.91 120.91 146.91 120.91 148.42C123.09 160.94 129.08 166.95 156.31 166.95C178.1 166.95 187.36 162.45 187.36 151.92C187.36 145.91 184.64 141.4 150.87 138.4C122.54 135.89 105.12 129.88 105.12 109.34C105.12 90.3 122.54 78.78 151.96 78.78C185.18 78.78 201.52 89.3 203.15 111.84C203.15 112.85 203.15 113.35 202.61 113.85C202.07 114.35 201.52 114.85 200.43 114.85L186.81 114.85C185.18 114.85 184.09 113.85 184.09 112.85C180.82 99.82 173.2 95.31 151.96 95.31C127.99 95.31 125.27 102.83 125.27 108.84C125.27 115.85 128.53 117.86 160.67 121.86C192.26 125.87 207.51 131.38 207.51 151.42C208.06 171.46 189.54 183.49 156.86 183.49Z" fill="#80BD01" fill-opacity="1.000000" fill-rule="nonzero"/>
</svg>
