<svg width="250.000000" height="250.000015" viewBox="0 0 250 250" fill="none" xmlns="http://www.w3.org/2000/svg" xmlns:xlink="http://www.w3.org/1999/xlink">
	<desc>
			Created with Pixso.
	</desc>

	<defs>
		<clipPath id="clip22_286">
			<rect id="my-sql" width="250.000000" height="250.000000" fill="white" fill-opacity="0"/>
		</clipPath>
	</defs>
	
	<g clip-path="url(#clip22_286)">
		<path id="path" d="M3.9 176.67L11.93 176.67L11.93 144.99L24.35 172.61C25.81 175.95 27.82 177.13 31.75 177.13C35.69 177.13 37.62 175.95 39.08 172.61L51.51 144.99L51.51 176.67L59.53 176.67L59.53 145.04C59.53 141.95 58.3 140.46 55.75 139.69C49.65 137.79 45.56 139.43 43.71 143.55L31.52 170.81L19.72 143.55C17.94 139.43 13.78 137.79 7.68 139.69C5.14 140.46 3.9 141.95 3.9 145.04L3.9 176.67ZM66.2 150.88L74.23 150.88L74.23 168.34C74.15 169.28 74.53 171.51 78.92 171.58C81.17 171.61 96.23 171.58 96.37 171.58L96.37 150.79L104.42 150.79C104.45 150.79 104.41 179.14 104.41 179.26C104.45 186.25 95.73 187.77 91.71 187.88L66.38 187.88L66.38 182.49C66.42 182.49 91.7 182.49 91.76 182.48C96.92 181.94 96.31 179.37 96.31 178.51L96.31 176.4L79.26 176.4C71.33 176.33 66.27 172.87 66.21 168.88C66.2 168.52 66.38 151.05 66.2 150.88Z" fill="#00618A" fill-opacity="1.000000" fill-rule="nonzero"/>
		<path id="path" d="M110.6 176.67L133.67 176.67C136.37 176.67 139 176.11 141.08 175.13C144.55 173.54 146.25 171.38 146.25 168.54L146.25 162.68C146.25 160.37 144.32 158.2 140.54 156.77C138.53 155.99 136.06 155.59 133.67 155.59L123.95 155.59C120.71 155.59 119.16 154.61 118.78 152.45C118.7 152.19 118.7 151.99 118.7 151.73L118.7 148.08C118.7 147.87 118.7 147.66 118.78 147.41C119.16 145.76 120.01 145.3 122.87 145.04L123.64 144.99L146.56 144.99L146.56 139.64L124.03 139.64C120.79 139.64 119.09 139.85 117.55 140.31C112.76 141.8 110.68 144.17 110.68 148.28L110.68 152.96C110.68 156.56 114.77 159.65 121.63 160.37C122.41 160.42 123.18 160.47 123.95 160.47L132.28 160.47C132.59 160.47 132.9 160.47 133.13 160.52C135.68 160.73 136.76 161.19 137.53 162.12C137.99 162.58 138.14 163.04 138.14 163.56L138.14 168.24C138.14 168.8 137.76 169.52 136.99 170.14C136.3 170.76 135.14 171.17 133.6 171.27L132.75 171.32L110.6 171.32L110.6 176.67ZM196.31 167.36C196.31 172.86 200.4 175.95 208.65 176.57C209.42 176.62 210.19 176.67 210.96 176.67L231.87 176.67L231.87 171.32L210.81 171.32C206.1 171.32 204.33 170.14 204.33 167.31L204.33 139.64L196.31 139.64L196.31 167.36ZM151.37 167.64L151.37 148.57C151.37 143.72 154.77 140.78 161.5 139.86C162.19 139.75 162.97 139.7 163.66 139.7L178.89 139.7C179.67 139.7 180.36 139.75 181.13 139.86C187.86 140.78 191.27 143.72 191.27 148.57L191.27 167.64C191.27 171.57 189.82 173.68 186.49 175.05L194.4 182.18L185.08 182.18L178.68 176.41L172.25 176.82L163.66 176.82C162.19 176.82 160.65 176.61 158.95 176.15C153.84 174.76 151.37 172.07 151.37 167.64ZM160.03 167.18C160.03 167.43 160.1 167.69 160.18 168C160.64 170.22 162.74 171.46 165.9 171.46L173.19 171.46L166.5 165.41L175.82 165.41L181.65 170.68C182.73 170.11 183.44 169.23 183.69 168.11C183.76 167.85 183.76 167.59 183.76 167.33L183.76 149.04C183.76 148.83 183.76 148.57 183.69 148.31C183.22 146.25 181.13 145.07 178.04 145.07L165.9 145.07C162.35 145.07 160.03 146.61 160.03 149.04L160.03 167.18Z" fill="#E48E00" fill-opacity="1.000000" fill-rule="nonzero"/>
		<path id="path" d="M238.93 130.76C234 130.63 230.23 131.09 227.01 132.44C226.1 132.83 224.64 132.84 224.49 133.99C224.99 134.52 225.07 135.3 225.47 135.95C226.24 137.19 227.54 138.86 228.69 139.74C229.96 140.69 231.26 141.71 232.62 142.54C235.03 144.02 237.73 144.85 240.06 146.33C241.43 147.2 242.78 148.29 244.12 149.27C244.78 149.76 245.23 150.51 246.09 150.82C245.64 150.24 245.52 149.31 245.1 148.71L243.28 146.89C241.5 144.52 239.24 142.44 236.83 140.72C234.91 139.34 230.62 137.48 229.82 135.25C231.18 135.09 232.63 134.46 233.88 134.13C235.99 133.56 237.88 133.71 240.05 133.14L243 132.3L243 131.74C241.9 130.61 241.11 129.12 239.91 128.1C236.77 125.42 233.35 122.75 229.82 120.52C227.86 119.28 225.44 118.48 223.36 117.43C222.67 117.08 221.44 116.9 220.98 116.31C219.89 114.92 219.29 113.16 218.45 111.54C216.69 108.16 214.96 104.45 213.4 100.88C212.34 98.45 211.65 96.05 210.32 93.87C203.95 83.4 197.1 77.08 186.48 70.87C184.22 69.55 181.5 69.03 178.62 68.35L173.99 68.07C173.05 67.67 172.07 66.52 171.19 65.96C167.67 63.74 158.64 58.91 156.04 65.26C154.39 69.27 158.5 73.19 159.97 75.22C161 76.65 162.32 78.25 163.05 79.85C163.54 80.9 163.62 81.96 164.04 83.08C165.05 85.82 165.94 88.81 167.26 91.35C167.93 92.63 168.66 93.99 169.51 95.14C170.02 95.84 170.91 96.15 171.05 97.24C170.18 98.45 170.13 100.33 169.64 101.87C167.45 108.78 168.28 117.37 171.47 122.49C172.45 124.06 174.75 127.43 177.92 126.13C180.69 125 180.07 121.51 180.87 118.42C181.05 117.72 180.93 117.2 181.29 116.74L183.81 121.93C185.68 124.93 189 128.08 191.81 130.2C193.26 131.3 194.41 133.2 196.29 133.85C195.93 133.28 195.22 132.9 194.75 132.44C193.65 131.37 192.43 130.03 191.53 128.8C188.97 125.33 186.71 121.53 184.65 117.58C183.67 115.69 182.82 113.61 181.99 111.68C181.67 110.94 181.67 109.82 181.01 109.44C180.1 110.85 178.77 111.99 178.06 113.65C176.94 116.31 176.8 119.55 176.38 122.91L176.1 123.04C174.14 122.57 173.46 120.56 172.73 118.84C170.9 114.48 170.55 107.45 172.17 102.43C172.59 101.13 174.48 97.04 173.71 95.83C173.35 94.64 172.14 93.95 171.47 93.03C170.64 91.9 169.8 90.41 169.23 89.1C167.72 85.7 167.02 81.88 165.44 78.44C164.68 76.8 163.41 75.14 162.35 73.67C161.19 72.05 159.89 70.86 158.99 68.91C158.67 68.21 158.23 67.09 158.71 66.38C158.86 65.9 159.07 65.7 159.55 65.54C160.36 64.91 162.63 65.75 163.48 66.1C165.73 67.03 167.6 67.92 169.51 69.18C170.42 69.79 171.35 70.96 172.45 71.29L173.72 71.29C175.69 71.74 177.9 71.43 179.75 71.99C183.01 72.98 185.93 74.52 188.58 76.2C196.67 81.3 203.27 88.57 207.8 97.24C208.52 98.63 208.84 99.96 209.48 101.44C210.77 104.43 212.4 107.5 213.69 110.42C214.97 113.33 216.22 116.27 218.04 118.69C218.99 119.97 222.67 120.65 224.35 121.36C225.52 121.85 227.44 122.37 228.55 123.04C230.68 124.32 232.74 125.85 234.73 127.25C235.72 127.96 238.78 129.49 238.93 130.76ZM176.24 77.33C175.21 77.31 174.48 77.44 173.71 77.61C174.2 78.62 175.21 79.4 175.82 80.27L177.22 83.22C178.09 82.6 178.63 81.49 178.62 79.99C178.27 79.62 178.22 79.16 177.92 78.73C177.52 78.14 176.75 77.82 176.24 77.33Z" fill="#00618A" fill-opacity="1.000000" fill-rule="nonzero"/>
	</g>
</svg>
