<svg width="250.000000" height="250.000000" viewBox="0 0 250 250" fill="none" xmlns="http://www.w3.org/2000/svg" xmlns:xlink="http://www.w3.org/1999/xlink">
	<desc>
			Created with Pixso.
	</desc>
	<defs>
		<clipPath id="clip22_294">
			<rect id="prisma-dark" width="249.999985" height="250.000000" fill="white" fill-opacity="0"/>
		</clipPath>
	</defs>
	<g clip-path="url(#clip22_294)">
		<path id="path" d="M27.79 157.25C25.36 161.22 25.4 166.23 27.89 170.16L73 241.33C75.93 245.95 81.58 248.05 86.81 246.48L217 207.42C224.11 205.29 227.68 197.37 224.57 190.63L140.88 9.09C136.8 0.23 124.5 -0.49 119.4 7.82L27.79 157.25ZM138.66 50.59C136.88 46.47 130.86 47.11 129.98 51.5L97.76 211.94C97.08 215.32 100.24 218.21 103.55 217.22L193.5 190.37C196.12 189.59 197.48 186.69 196.39 184.17L138.66 50.59Z" fill="#2D3748" fill-opacity="1.000000" fill-rule="evenodd"/>
	</g>
</svg>
