<svg width="250.000000" height="250.000000" viewBox="0 0 250 250" fill="none" xmlns="http://www.w3.org/2000/svg" xmlns:xlink="http://www.w3.org/1999/xlink">
	<desc>
			Created with Pixso.
	</desc>

	<defs/>
	<rect id="фрейм 2" width="250.000000" height="250.000000" fill="#FFFFFF" fill-opacity="0"/>
	
	<mask id="mask22_299" mask-type="alpha" maskUnits="userSpaceOnUse" x="3.000000" y="51.000000" width="245.000000" height="147.000000">
		<path id="path" d="M3 51L248 51L248 198L3 198L3 51Z" fill="#000000" fill-opacity="1.000000" fill-rule="nonzero"/>
	</mask>
	
	<g mask="url(#mask22_299)">
		<path id="path" d="M125.5 51C92.83 51 72.41 67.33 64.25 100C76.5 83.66 90.79 77.54 107.12 81.62C116.44 83.95 123.1 90.71 130.47 98.19C142.48 110.39 156.38 124.5 186.75 124.5C219.41 124.5 239.83 108.16 248 75.5C235.75 91.83 221.45 97.95 205.12 93.87C195.8 91.54 189.14 84.78 181.77 77.3C169.76 65.11 155.86 51 125.5 51ZM64.25 124.5C31.58 124.5 11.16 140.83 3 173.5C15.25 157.16 29.54 151.04 45.87 155.12C55.19 157.45 61.85 164.21 69.22 171.69C81.23 183.89 95.13 198 125.5 198C158.16 198 178.58 181.66 186.75 149C174.5 165.33 160.2 171.45 143.87 167.37C134.55 165.04 127.89 158.28 120.52 150.8C108.51 138.61 94.61 124.5 64.25 124.5Z" fill="#38BDF8" fill-opacity="1.000000" fill-rule="evenodd"/>
	</g>
</svg>
