<svg width="270.000000" height="270.000000" viewBox="0 0 270 270" fill="none" xmlns="http://www.w3.org/2000/svg" xmlns:xlink="http://www.w3.org/1999/xlink">
	<desc>
			Created with Pixso.
	</desc>
	
	<defs/>
	<rect id="ts" width="270.000000" height="270.000000" fill="#FFFFFF" fill-opacity="0"/>
	<path id="path" d="M270 50C270 22.4 247.59 0 220 0L50 0C22.4 0 0 22.4 0 50L0 220C0 247.59 22.4 270 50 270L220 270C247.59 270 270 247.59 270 220L270 50Z" fill="#3178C6" fill-opacity="1.000000" fill-rule="evenodd"/>
	<path id="path" d="M167.16 214.62L167.16 240.99C171.43 243.21 176.66 244.84 182.46 245.95C188.26 247.06 194.59 247.58 200.91 247.58C207.24 247.58 213.04 247 218.84 245.79C224.64 244.58 229.39 242.57 233.61 239.99C237.88 237.19 241.52 233.66 243.63 228.92C245.74 224.17 247.37 218.9 247.37 212.04C247.37 207.24 246.63 203.08 245.21 199.38C243.79 195.69 241.73 192.53 238.88 189.89C236.19 187.1 233.08 184.62 229.39 182.51C225.7 180.4 221.48 178.18 216.73 176.18C213.25 174.76 210.41 173.39 207.24 172.02C204.5 170.64 202.13 169.27 200.39 167.9C198.43 166.48 196.96 165 195.9 163.47C194.85 161.89 194.32 160.15 194.32 158.2C194.32 156.41 194.79 154.77 195.75 153.29C196.7 151.82 198.01 150.6 199.7 149.55C201.39 148.5 203.5 147.7 206.03 147.12C208.51 146.54 211.25 146.28 214.47 146.28C216.68 146.28 219 146.44 221.32 146.78C223.75 147.11 226.23 147.62 228.7 148.31C231.18 148.99 233.61 149.83 236.09 150.89C238.41 151.94 240.57 153.16 242.42 154.53L242.42 129.74C238.41 128.21 233.98 127.05 229.23 126.32C224.49 125.58 219.21 125.21 212.88 125.21C206.56 125.21 200.76 125.89 194.95 127.21C189.15 128.53 184.41 130.64 180.19 133.54C175.92 136.39 172.81 139.87 170.17 144.61C167.69 149.04 166.48 154.11 166.48 160.43C166.48 168.34 168.75 175.2 173.33 180.47C177.87 186.27 184.93 190.49 193.9 194.71C197.54 196.19 200.76 197.67 203.92 199.09C207.08 200.51 209.72 201.99 211.83 203.52C214.1 205.05 215.89 206.74 217.1 208.53C218.42 210.32 219.11 212.43 219.11 214.86C219.11 216.54 218.7 218.13 217.89 219.6C217.09 221.08 215.84 222.34 214.15 223.4C212.46 224.45 210.41 225.3 207.82 225.93C205.34 226.51 202.55 226.83 198.86 226.83C193.06 226.83 187.26 225.83 181.98 223.82C176.18 221.82 170.91 218.81 166.16 214.86L167.16 214.62ZM122.87 149.76L156.62 149.76L156.62 128.14L62.22 128.14L62.22 149.76L95.97 149.76L95.97 246.27L122.87 246.27L122.87 149.76Z" fill="#FFFFFF" fill-opacity="1.000000" fill-rule="evenodd"/>
</svg>
